<svg version="1.1" xmlns="http://www.w3.org/2000/svg" viewBox="0 0 779.1611917024175 458.1520010437898" width="779.1611917024175" height="458.1520010437898">
  <!-- svg-source:excalidraw -->
  
  <defs>
    <style class="style-fonts">
      @font-face {
        font-family: "Virgil";
        src: url("https://excalidraw.com/Virgil.woff2");
      }
      @font-face {
        font-family: "Cascadia";
        src: url("https://excalidraw.com/Cascadia.woff2");
      }
      @font-face {
        font-family: "Assistant";
        src: url("https://excalidraw.com/Assistant-Regular.woff2");
      }
    </style>
    
  </defs>
  <g stroke-linecap="round" transform="translate(241.22812916215344 118.92748801242124) rotate(0 37.90836610432649 37.90836610432649)"><path d="M75.82 37.91 C75.82 39.89, 75.66 41.89, 75.35 43.84 C75.04 45.79, 74.57 47.74, 73.96 49.62 C73.35 51.5, 72.58 53.36, 71.68 55.12 C70.79 56.88, 69.74 58.59, 68.58 60.19 C67.41 61.79, 66.11 63.32, 64.71 64.71 C63.32 66.11, 61.79 67.41, 60.19 68.58 C58.59 69.74, 56.88 70.79, 55.12 71.68 C53.36 72.58, 51.5 73.35, 49.62 73.96 C47.74 74.57, 45.79 75.04, 43.84 75.35 C41.89 75.66, 39.89 75.82, 37.91 75.82 C35.93 75.82, 33.93 75.66, 31.98 75.35 C30.03 75.04, 28.07 74.57, 26.19 73.96 C24.31 73.35, 22.46 72.58, 20.7 71.68 C18.94 70.79, 17.23 69.74, 15.63 68.58 C14.03 67.41, 12.5 66.11, 11.1 64.71 C9.71 63.32, 8.4 61.79, 7.24 60.19 C6.08 58.59, 5.03 56.88, 4.13 55.12 C3.23 53.36, 2.47 51.5, 1.86 49.62 C1.24 47.74, 0.78 45.79, 0.47 43.84 C0.16 41.89, 0 39.89, 0 37.91 C0 35.93, 0.16 33.93, 0.47 31.98 C0.78 30.03, 1.24 28.07, 1.86 26.19 C2.47 24.31, 3.23 22.46, 4.13 20.7 C5.03 18.94, 6.08 17.23, 7.24 15.63 C8.4 14.03, 9.71 12.5, 11.1 11.1 C12.5 9.71, 14.03 8.4, 15.63 7.24 C17.23 6.08, 18.94 5.03, 20.7 4.13 C22.46 3.23, 24.31 2.47, 26.19 1.86 C28.07 1.24, 30.03 0.78, 31.98 0.47 C33.93 0.16, 35.93 0, 37.91 0 C39.89 0, 41.89 0.16, 43.84 0.47 C45.79 0.78, 47.74 1.24, 49.62 1.86 C51.5 2.47, 53.36 3.23, 55.12 4.13 C56.88 5.03, 58.59 6.08, 60.19 7.24 C61.79 8.4, 63.32 9.71, 64.71 11.1 C66.11 12.5, 67.41 14.03, 68.58 15.63 C69.74 17.23, 70.79 18.94, 71.68 20.7 C72.58 22.46, 73.35 24.31, 73.96 26.19 C74.57 28.07, 75.04 30.03, 75.35 31.98 C75.66 33.93, 75.74 36.92, 75.82 37.91 C75.89 38.9, 75.89 36.92, 75.82 37.91" stroke="#1971c2" stroke-width="4" fill="none"></path></g><g transform="translate(268.7812323396735 135.43059138067622) rotate(0 10.550000190734863 21.6)"><text x="10.550000190734863" y="0" font-family="Cascadia, Segoe UI Emoji" font-size="36px" fill="#1971c2" text-anchor="middle" style="white-space: pre;" direction="ltr" dominant-baseline="text-before-edge">1</text></g><g stroke-linecap="round" transform="translate(445.31896361630515 86.47011797557548) rotate(0 37.90836610432649 37.90836610432649)"><path d="M75.82 37.91 C75.82 39.89, 75.66 41.89, 75.35 43.84 C75.04 45.79, 74.57 47.74, 73.96 49.62 C73.35 51.5, 72.58 53.36, 71.68 55.12 C70.79 56.88, 69.74 58.59, 68.58 60.19 C67.41 61.79, 66.11 63.32, 64.71 64.71 C63.32 66.11, 61.79 67.41, 60.19 68.58 C58.59 69.74, 56.88 70.79, 55.12 71.68 C53.36 72.58, 51.5 73.35, 49.62 73.96 C47.74 74.57, 45.79 75.04, 43.84 75.35 C41.89 75.66, 39.89 75.82, 37.91 75.82 C35.93 75.82, 33.93 75.66, 31.98 75.35 C30.03 75.04, 28.07 74.57, 26.19 73.96 C24.31 73.35, 22.46 72.58, 20.7 71.68 C18.94 70.79, 17.23 69.74, 15.63 68.58 C14.03 67.41, 12.5 66.11, 11.1 64.71 C9.71 63.32, 8.4 61.79, 7.24 60.19 C6.08 58.59, 5.03 56.88, 4.13 55.12 C3.23 53.36, 2.47 51.5, 1.86 49.62 C1.24 47.74, 0.78 45.79, 0.47 43.84 C0.16 41.89, 0 39.89, 0 37.91 C0 35.93, 0.16 33.93, 0.47 31.98 C0.78 30.03, 1.24 28.07, 1.86 26.19 C2.47 24.31, 3.23 22.46, 4.13 20.7 C5.03 18.94, 6.08 17.23, 7.24 15.63 C8.4 14.03, 9.71 12.5, 11.1 11.1 C12.5 9.71, 14.03 8.4, 15.63 7.24 C17.23 6.08, 18.94 5.03, 20.7 4.13 C22.46 3.23, 24.31 2.47, 26.19 1.86 C28.07 1.24, 30.03 0.78, 31.98 0.47 C33.93 0.16, 35.93 0, 37.91 0 C39.89 0, 41.89 0.16, 43.84 0.47 C45.79 0.78, 47.74 1.24, 49.62 1.86 C51.5 2.47, 53.36 3.23, 55.12 4.13 C56.88 5.03, 58.59 6.08, 60.19 7.24 C61.79 8.4, 63.32 9.71, 64.71 11.1 C66.11 12.5, 67.41 14.03, 68.58 15.63 C69.74 17.23, 70.79 18.94, 71.68 20.7 C72.58 22.46, 73.35 24.31, 73.96 26.19 C74.57 28.07, 75.04 30.03, 75.35 31.98 C75.66 33.93, 75.74 36.92, 75.82 37.91 C75.89 38.9, 75.89 36.92, 75.82 37.91" stroke="#2f9e44" stroke-width="4" fill="none"></path></g><g transform="translate(472.87206679382524 102.97322134383045) rotate(0 10.550000190734863 21.6)"><text x="10.550000190734863" y="0" font-family="Cascadia, Segoe UI Emoji" font-size="36px" fill="#2f9e44" text-anchor="middle" style="white-space: pre;" direction="ltr" dominant-baseline="text-before-edge">2</text></g><g stroke-linecap="round" transform="translate(321.88151492907593 282.97927920886184) rotate(0 37.90836610432649 37.90836610432649)"><path d="M75.82 37.91 C75.82 39.89, 75.66 41.89, 75.35 43.84 C75.04 45.79, 74.57 47.74, 73.96 49.62 C73.35 51.5, 72.58 53.36, 71.68 55.12 C70.79 56.88, 69.74 58.59, 68.58 60.19 C67.41 61.79, 66.11 63.32, 64.71 64.71 C63.32 66.11, 61.79 67.41, 60.19 68.58 C58.59 69.74, 56.88 70.79, 55.12 71.68 C53.36 72.58, 51.5 73.35, 49.62 73.96 C47.74 74.57, 45.79 75.04, 43.84 75.35 C41.89 75.66, 39.89 75.82, 37.91 75.82 C35.93 75.82, 33.93 75.66, 31.98 75.35 C30.03 75.04, 28.07 74.57, 26.19 73.96 C24.31 73.35, 22.46 72.58, 20.7 71.68 C18.94 70.79, 17.23 69.74, 15.63 68.58 C14.03 67.41, 12.5 66.11, 11.1 64.71 C9.71 63.32, 8.4 61.79, 7.24 60.19 C6.08 58.59, 5.03 56.88, 4.13 55.12 C3.23 53.36, 2.47 51.5, 1.86 49.62 C1.24 47.74, 0.78 45.79, 0.47 43.84 C0.16 41.89, 0 39.89, 0 37.91 C0 35.93, 0.16 33.93, 0.47 31.98 C0.78 30.03, 1.24 28.07, 1.86 26.19 C2.47 24.31, 3.23 22.46, 4.13 20.7 C5.03 18.94, 6.08 17.23, 7.24 15.63 C8.4 14.03, 9.71 12.5, 11.1 11.1 C12.5 9.71, 14.03 8.4, 15.63 7.24 C17.23 6.08, 18.94 5.03, 20.7 4.13 C22.46 3.23, 24.31 2.47, 26.19 1.86 C28.07 1.24, 30.03 0.78, 31.98 0.47 C33.93 0.16, 35.93 0, 37.91 0 C39.89 0, 41.89 0.16, 43.84 0.47 C45.79 0.78, 47.74 1.24, 49.62 1.86 C51.5 2.47, 53.36 3.23, 55.12 4.13 C56.88 5.03, 58.59 6.08, 60.19 7.24 C61.79 8.4, 63.32 9.71, 64.71 11.1 C66.11 12.5, 67.41 14.03, 68.58 15.63 C69.74 17.23, 70.79 18.94, 71.68 20.7 C72.58 22.46, 73.35 24.31, 73.96 26.19 C74.57 28.07, 75.04 30.03, 75.35 31.98 C75.66 33.93, 75.74 36.92, 75.82 37.91 C75.89 38.9, 75.89 36.92, 75.82 37.91" stroke="#1971c2" stroke-width="4" fill="none"></path></g><g transform="translate(349.434618106596 299.48238257711677) rotate(0 10.550000190734863 21.599999999999994)"><text x="10.550000190734863" y="0" font-family="Cascadia, Segoe UI Emoji" font-size="36px" fill="#1971c2" text-anchor="middle" style="white-space: pre;" direction="ltr" dominant-baseline="text-before-edge">1</text></g><g stroke-linecap="round" transform="translate(637.9265190731563 200.2513203107095) rotate(0 37.90836610432649 37.90836610432649)"><path d="M75.82 37.91 C75.82 39.89, 75.66 41.89, 75.35 43.84 C75.04 45.79, 74.57 47.74, 73.96 49.62 C73.35 51.5, 72.58 53.36, 71.68 55.12 C70.79 56.88, 69.74 58.59, 68.58 60.19 C67.41 61.79, 66.11 63.32, 64.71 64.71 C63.32 66.11, 61.79 67.41, 60.19 68.58 C58.59 69.74, 56.88 70.79, 55.12 71.68 C53.36 72.58, 51.5 73.35, 49.62 73.96 C47.74 74.57, 45.79 75.04, 43.84 75.35 C41.89 75.66, 39.89 75.82, 37.91 75.82 C35.93 75.82, 33.93 75.66, 31.98 75.35 C30.03 75.04, 28.07 74.57, 26.19 73.96 C24.31 73.35, 22.46 72.58, 20.7 71.68 C18.94 70.79, 17.23 69.74, 15.63 68.58 C14.03 67.41, 12.5 66.11, 11.1 64.71 C9.71 63.32, 8.4 61.79, 7.24 60.19 C6.08 58.59, 5.03 56.88, 4.13 55.12 C3.23 53.36, 2.47 51.5, 1.86 49.62 C1.24 47.74, 0.78 45.79, 0.47 43.84 C0.16 41.89, 0 39.89, 0 37.91 C0 35.93, 0.16 33.93, 0.47 31.98 C0.78 30.03, 1.24 28.07, 1.86 26.19 C2.47 24.31, 3.23 22.46, 4.13 20.7 C5.03 18.94, 6.08 17.23, 7.24 15.63 C8.4 14.03, 9.71 12.5, 11.1 11.1 C12.5 9.71, 14.03 8.4, 15.63 7.24 C17.23 6.08, 18.94 5.03, 20.7 4.13 C22.46 3.23, 24.31 2.47, 26.19 1.86 C28.07 1.24, 30.03 0.78, 31.98 0.47 C33.93 0.16, 35.93 0, 37.91 0 C39.89 0, 41.89 0.16, 43.84 0.47 C45.79 0.78, 47.74 1.24, 49.62 1.86 C51.5 2.47, 53.36 3.23, 55.12 4.13 C56.88 5.03, 58.59 6.08, 60.19 7.24 C61.79 8.4, 63.32 9.71, 64.71 11.1 C66.11 12.5, 67.41 14.03, 68.58 15.63 C69.74 17.23, 70.79 18.94, 71.68 20.7 C72.58 22.46, 73.35 24.31, 73.96 26.19 C74.57 28.07, 75.04 30.03, 75.35 31.98 C75.66 33.93, 75.74 36.92, 75.82 37.91 C75.89 38.9, 75.89 36.92, 75.82 37.91" stroke="#f08c00" stroke-width="4" fill="none"></path></g><g transform="translate(665.4796222506764 216.75442367896446) rotate(0 10.550000190734863 21.599999999999994)"><text x="10.550000190734863" y="0" font-family="Cascadia, Segoe UI Emoji" font-size="36px" fill="#f08c00" text-anchor="middle" style="white-space: pre;" direction="ltr" dominant-baseline="text-before-edge">3</text></g><g stroke-linecap="round" transform="translate(67.42494433375191 309.0446177855539) rotate(0 37.90836610432649 37.90836610432649)"><path d="M75.82 37.91 C75.82 39.89, 75.66 41.89, 75.35 43.84 C75.04 45.79, 74.57 47.74, 73.96 49.62 C73.35 51.5, 72.58 53.36, 71.68 55.12 C70.79 56.88, 69.74 58.59, 68.58 60.19 C67.41 61.79, 66.11 63.32, 64.71 64.71 C63.32 66.11, 61.79 67.41, 60.19 68.58 C58.59 69.74, 56.88 70.79, 55.12 71.68 C53.36 72.58, 51.5 73.35, 49.62 73.96 C47.74 74.57, 45.79 75.04, 43.84 75.35 C41.89 75.66, 39.89 75.82, 37.91 75.82 C35.93 75.82, 33.93 75.66, 31.98 75.35 C30.03 75.04, 28.07 74.57, 26.19 73.96 C24.31 73.35, 22.46 72.58, 20.7 71.68 C18.94 70.79, 17.23 69.74, 15.63 68.58 C14.03 67.41, 12.5 66.11, 11.1 64.71 C9.71 63.32, 8.4 61.79, 7.24 60.19 C6.08 58.59, 5.03 56.88, 4.13 55.12 C3.23 53.36, 2.47 51.5, 1.86 49.62 C1.24 47.74, 0.78 45.79, 0.47 43.84 C0.16 41.89, 0 39.89, 0 37.91 C0 35.93, 0.16 33.93, 0.47 31.98 C0.78 30.03, 1.24 28.07, 1.86 26.19 C2.47 24.31, 3.23 22.46, 4.13 20.7 C5.03 18.94, 6.08 17.23, 7.24 15.63 C8.4 14.03, 9.71 12.5, 11.1 11.1 C12.5 9.71, 14.03 8.4, 15.63 7.24 C17.23 6.08, 18.94 5.03, 20.7 4.13 C22.46 3.23, 24.31 2.47, 26.19 1.86 C28.07 1.24, 30.03 0.78, 31.98 0.47 C33.93 0.16, 35.93 0, 37.91 0 C39.89 0, 41.89 0.16, 43.84 0.47 C45.79 0.78, 47.74 1.24, 49.62 1.86 C51.5 2.47, 53.36 3.23, 55.12 4.13 C56.88 5.03, 58.59 6.08, 60.19 7.24 C61.79 8.4, 63.32 9.71, 64.71 11.1 C66.11 12.5, 67.41 14.03, 68.58 15.63 C69.74 17.23, 70.79 18.94, 71.68 20.7 C72.58 22.46, 73.35 24.31, 73.96 26.19 C74.57 28.07, 75.04 30.03, 75.35 31.98 C75.66 33.93, 75.74 36.92, 75.82 37.91 C75.89 38.9, 75.89 36.92, 75.82 37.91" stroke="#1e1e1e" stroke-width="4" fill="none"></path></g><g transform="translate(94.97804751127205 325.5477211538088) rotate(0 10.550000190734863 21.599999999999994)"><text x="10.550000190734863" y="0" font-family="Cascadia, Segoe UI Emoji" font-size="36px" fill="#1e1e1e" text-anchor="middle" style="white-space: pre;" direction="ltr" dominant-baseline="text-before-edge">0</text></g><g stroke-linecap="round" transform="translate(10 36.78652952853946) rotate(0 37.90836610432649 37.90836610432649)"><path d="M75.82 37.91 C75.82 39.89, 75.66 41.89, 75.35 43.84 C75.04 45.79, 74.57 47.74, 73.96 49.62 C73.35 51.5, 72.58 53.36, 71.68 55.12 C70.79 56.88, 69.74 58.59, 68.58 60.19 C67.41 61.79, 66.11 63.32, 64.71 64.71 C63.32 66.11, 61.79 67.41, 60.19 68.58 C58.59 69.74, 56.88 70.79, 55.12 71.68 C53.36 72.58, 51.5 73.35, 49.62 73.96 C47.74 74.57, 45.79 75.04, 43.84 75.35 C41.89 75.66, 39.89 75.82, 37.91 75.82 C35.93 75.82, 33.93 75.66, 31.98 75.35 C30.03 75.04, 28.07 74.57, 26.19 73.96 C24.31 73.35, 22.46 72.58, 20.7 71.68 C18.94 70.79, 17.23 69.74, 15.63 68.58 C14.03 67.41, 12.5 66.11, 11.1 64.71 C9.71 63.32, 8.4 61.79, 7.24 60.19 C6.08 58.59, 5.03 56.88, 4.13 55.12 C3.23 53.36, 2.47 51.5, 1.86 49.62 C1.24 47.74, 0.78 45.79, 0.47 43.84 C0.16 41.89, 0 39.89, 0 37.91 C0 35.93, 0.16 33.93, 0.47 31.98 C0.78 30.03, 1.24 28.07, 1.86 26.19 C2.47 24.31, 3.23 22.46, 4.13 20.7 C5.03 18.94, 6.08 17.23, 7.24 15.63 C8.4 14.03, 9.71 12.5, 11.1 11.1 C12.5 9.71, 14.03 8.4, 15.63 7.24 C17.23 6.08, 18.94 5.03, 20.7 4.13 C22.46 3.23, 24.31 2.47, 26.19 1.86 C28.07 1.24, 30.03 0.78, 31.98 0.47 C33.93 0.16, 35.93 0, 37.91 0 C39.89 0, 41.89 0.16, 43.84 0.47 C45.79 0.78, 47.74 1.24, 49.62 1.86 C51.5 2.47, 53.36 3.23, 55.12 4.13 C56.88 5.03, 58.59 6.08, 60.19 7.24 C61.79 8.4, 63.32 9.71, 64.71 11.1 C66.11 12.5, 67.41 14.03, 68.58 15.63 C69.74 17.23, 70.79 18.94, 71.68 20.7 C72.58 22.46, 73.35 24.31, 73.96 26.19 C74.57 28.07, 75.04 30.03, 75.35 31.98 C75.66 33.93, 75.74 36.92, 75.82 37.91 C75.89 38.9, 75.89 36.92, 75.82 37.91" stroke="#2f9e44" stroke-width="4" fill="none"></path></g><g transform="translate(37.55310317752014 53.28963289679443) rotate(0 10.550000190734863 21.599999999999998)"><text x="10.550000190734863" y="0" font-family="Cascadia, Segoe UI Emoji" font-size="36px" fill="#2f9e44" text-anchor="middle" style="white-space: pre;" direction="ltr" dominant-baseline="text-before-edge">2</text></g><g stroke-linecap="round" transform="translate(477.4471589246298 372.33526883513684) rotate(0 37.90836610432649 37.90836610432649)"><path d="M75.82 37.91 C75.82 39.89, 75.66 41.89, 75.35 43.84 C75.04 45.79, 74.57 47.74, 73.96 49.62 C73.35 51.5, 72.58 53.36, 71.68 55.12 C70.79 56.88, 69.74 58.59, 68.58 60.19 C67.41 61.79, 66.11 63.32, 64.71 64.71 C63.32 66.11, 61.79 67.41, 60.19 68.58 C58.59 69.74, 56.88 70.79, 55.12 71.68 C53.36 72.58, 51.5 73.35, 49.62 73.96 C47.74 74.57, 45.79 75.04, 43.84 75.35 C41.89 75.66, 39.89 75.82, 37.91 75.82 C35.93 75.82, 33.93 75.66, 31.98 75.35 C30.03 75.04, 28.07 74.57, 26.19 73.96 C24.31 73.35, 22.46 72.58, 20.7 71.68 C18.94 70.79, 17.23 69.74, 15.63 68.58 C14.03 67.41, 12.5 66.11, 11.1 64.71 C9.71 63.32, 8.4 61.79, 7.24 60.19 C6.08 58.59, 5.03 56.88, 4.13 55.12 C3.23 53.36, 2.47 51.5, 1.86 49.62 C1.24 47.74, 0.78 45.79, 0.47 43.84 C0.16 41.89, 0 39.89, 0 37.91 C0 35.93, 0.16 33.93, 0.47 31.98 C0.78 30.03, 1.24 28.07, 1.86 26.19 C2.47 24.31, 3.23 22.46, 4.13 20.7 C5.03 18.94, 6.08 17.23, 7.24 15.63 C8.4 14.03, 9.71 12.5, 11.1 11.1 C12.5 9.71, 14.03 8.4, 15.63 7.24 C17.23 6.08, 18.94 5.03, 20.7 4.13 C22.46 3.23, 24.31 2.47, 26.19 1.86 C28.07 1.24, 30.03 0.78, 31.98 0.47 C33.93 0.16, 35.93 0, 37.91 0 C39.89 0, 41.89 0.16, 43.84 0.47 C45.79 0.78, 47.74 1.24, 49.62 1.86 C51.5 2.47, 53.36 3.23, 55.12 4.13 C56.88 5.03, 58.59 6.08, 60.19 7.24 C61.79 8.4, 63.32 9.71, 64.71 11.1 C66.11 12.5, 67.41 14.03, 68.58 15.63 C69.74 17.23, 70.79 18.94, 71.68 20.7 C72.58 22.46, 73.35 24.31, 73.96 26.19 C74.57 28.07, 75.04 30.03, 75.35 31.98 C75.66 33.93, 75.74 36.92, 75.82 37.91 C75.89 38.9, 75.89 36.92, 75.82 37.91" stroke="#2f9e44" stroke-width="4" fill="none"></path></g><g transform="translate(505.00026210214986 388.8383722033918) rotate(0 10.550000190734863 21.599999999999994)"><text x="10.550000190734863" y="0" font-family="Cascadia, Segoe UI Emoji" font-size="36px" fill="#2f9e44" text-anchor="middle" style="white-space: pre;" direction="ltr" dominant-baseline="text-before-edge">2</text></g><g stroke-linecap="round" transform="translate(693.3444594937645 10) rotate(0 37.90836610432649 37.90836610432649)"><path d="M75.82 37.91 C75.82 39.89, 75.66 41.89, 75.35 43.84 C75.04 45.79, 74.57 47.74, 73.96 49.62 C73.35 51.5, 72.58 53.36, 71.68 55.12 C70.79 56.88, 69.74 58.59, 68.58 60.19 C67.41 61.79, 66.11 63.32, 64.71 64.71 C63.32 66.11, 61.79 67.41, 60.19 68.58 C58.59 69.74, 56.88 70.79, 55.12 71.68 C53.36 72.58, 51.5 73.35, 49.62 73.96 C47.74 74.57, 45.79 75.04, 43.84 75.35 C41.89 75.66, 39.89 75.82, 37.91 75.82 C35.93 75.82, 33.93 75.66, 31.98 75.35 C30.03 75.04, 28.07 74.57, 26.19 73.96 C24.31 73.35, 22.46 72.58, 20.7 71.68 C18.94 70.79, 17.23 69.74, 15.63 68.58 C14.03 67.41, 12.5 66.11, 11.1 64.71 C9.71 63.32, 8.4 61.79, 7.24 60.19 C6.08 58.59, 5.03 56.88, 4.13 55.12 C3.23 53.36, 2.47 51.5, 1.86 49.62 C1.24 47.74, 0.78 45.79, 0.47 43.84 C0.16 41.89, 0 39.89, 0 37.91 C0 35.93, 0.16 33.93, 0.47 31.98 C0.78 30.03, 1.24 28.07, 1.86 26.19 C2.47 24.31, 3.23 22.46, 4.13 20.7 C5.03 18.94, 6.08 17.23, 7.24 15.63 C8.4 14.03, 9.71 12.5, 11.1 11.1 C12.5 9.71, 14.03 8.4, 15.63 7.24 C17.23 6.08, 18.94 5.03, 20.7 4.13 C22.46 3.23, 24.31 2.47, 26.19 1.86 C28.07 1.24, 30.03 0.78, 31.98 0.47 C33.93 0.16, 35.93 0, 37.91 0 C39.89 0, 41.89 0.16, 43.84 0.47 C45.79 0.78, 47.74 1.24, 49.62 1.86 C51.5 2.47, 53.36 3.23, 55.12 4.13 C56.88 5.03, 58.59 6.08, 60.19 7.24 C61.79 8.4, 63.32 9.71, 64.71 11.1 C66.11 12.5, 67.41 14.03, 68.58 15.63 C69.74 17.23, 70.79 18.94, 71.68 20.7 C72.58 22.46, 73.35 24.31, 73.96 26.19 C74.57 28.07, 75.04 30.03, 75.35 31.98 C75.66 33.93, 75.74 36.92, 75.82 37.91 C75.89 38.9, 75.89 36.92, 75.82 37.91" stroke="#f08c00" stroke-width="4" fill="none"></path></g><g transform="translate(720.8975626712846 26.503103368254965) rotate(0 10.550000190734863 21.599999999999998)"><text x="10.550000190734863" y="0" font-family="Cascadia, Segoe UI Emoji" font-size="36px" fill="#f08c00" text-anchor="middle" style="white-space: pre;" direction="ltr" dominant-baseline="text-before-edge">3</text></g><g stroke-linecap="round"><g transform="translate(410.1741075473759 353.6475218259129) rotate(0 27.155143426325594 14.167900918083035)"><path d="M0 0 C9.05 4.72, 45.26 23.61, 54.31 28.34 M0 0 C9.05 4.72, 45.26 23.61, 54.31 28.34" stroke="#1e1e1e" stroke-width="4" fill="none"></path></g></g><mask></mask><g stroke-linecap="round"><g transform="translate(166.95847512028627 343.0215961373508) rotate(0 66.1168709510535 -8.26460886888168)"><path d="M0 0 C22.04 -2.75, 110.19 -13.77, 132.23 -16.53 M0 0 C22.04 -2.75, 110.19 -13.77, 132.23 -16.53" stroke="#1e1e1e" stroke-width="4" fill="none"></path></g></g><mask></mask><g stroke-linecap="round"><g transform="translate(136.26135646443993 285.169334055179) rotate(0 43.684361164088955 -48.40699480344989)"><path d="M0 0 C14.56 -16.14, 72.81 -80.68, 87.37 -96.81 M0 0 C14.56 -16.14, 72.81 -80.68, 87.37 -96.81" stroke="#1e1e1e" stroke-width="4" fill="none"></path></g></g><mask></mask><g stroke-linecap="round"><g transform="translate(207.10086105485436 123.41913190706595) rotate(0 -49.58765321329008 -17.119546942683485)"><path d="M0 0 C-16.53 -5.71, -82.65 -28.53, -99.18 -34.24 M0 0 C-16.53 -5.71, -82.65 -28.53, -99.18 -34.24" stroke="#1e1e1e" stroke-width="4" fill="none"></path></g></g><mask></mask><g stroke-linecap="round"><g transform="translate(339.33460295696136 150.57427533339148) rotate(0 43.09403195916883 -7.083950459041432)"><path d="M0 0 C14.36 -2.36, 71.82 -11.81, 86.19 -14.17 M0 0 C14.36 -2.36, 71.82 -11.81, 86.19 -14.17" stroke="#1e1e1e" stroke-width="4" fill="none"></path></g></g><mask></mask><g stroke-linecap="round"><g transform="translate(399.5481818588138 267.45945790757537) rotate(0 28.335801836165786 -42.50370275424868)"><path d="M0 0 C9.45 -14.17, 47.23 -70.84, 56.67 -85.01 M0 0 C9.45 -14.17, 47.23 -70.84, 56.67 -85.01" stroke="#1e1e1e" stroke-width="4" fill="none"></path></g></g><mask></mask><g stroke-linecap="round"><g transform="translate(537.6852158101219 162.38085943179397) rotate(0 40.142385934568324 22.432509786964545)"><path d="M0 0 C13.38 7.48, 66.9 37.39, 80.28 44.87 M0 0 C13.38 7.48, 66.9 37.39, 80.28 44.87" stroke="#1e1e1e" stroke-width="4" fill="none"></path></g></g><mask></mask><g stroke-linecap="round"><g transform="translate(544.7691662691633 106.88991416930253) rotate(0 64.34588333629318 -22.432509786964545)"><path d="M0 0 C21.45 -7.48, 107.24 -37.39, 128.69 -44.87 M0 0 C21.45 -7.48, 107.24 -37.39, 128.69 -44.87" stroke="#1e1e1e" stroke-width="4" fill="none"></path></g></g><mask></mask></svg>