<svg version="1.1" xmlns="http://www.w3.org/2000/svg" viewBox="0 0 250.70893559304614 152.5988218996572" width="250.70893559304614" height="152.5988218996572">
  <!-- svg-source:excalidraw -->
  
  <defs>
    <style class="style-fonts">
      @font-face {
        font-family: "Virgil";
        src: url("https://excalidraw.com/Virgil.woff2");
      }
      @font-face {
        font-family: "Cascadia";
        src: url("https://excalidraw.com/Cascadia.woff2");
      }
      @font-face {
        font-family: "Assistant";
        src: url("https://excalidraw.com/Assistant-Regular.woff2");
      }
    </style>
    
  </defs>
  <g stroke-linecap="round"><g transform="translate(12.286520451793308 142.5988218996572) rotate(0 0 -41.15483903805793)"><path d="M0 0 C0 -13.72, 0 -68.59, 0 -82.31 M0 0 C0 -13.72, 0 -68.59, 0 -82.31" stroke="#1e1e1e" stroke-width="4" fill="none"></path></g><g transform="translate(12.286520451793308 142.5988218996572) rotate(0 0 -41.15483903805793)"><path d="M0 -82.31 L6.34 -68.72 L-6.34 -68.72 L0 -82.31" stroke="none" stroke-width="0" fill="#1e1e1e" fill-rule="evenodd"></path><path d="M0 -82.31 C2.52 -76.91, 5.04 -71.51, 6.34 -68.72 M0 -82.31 C2.03 -77.96, 4.06 -73.61, 6.34 -68.72 M6.34 -68.72 C1.41 -68.72, -3.51 -68.72, -6.34 -68.72 M6.34 -68.72 C2.14 -68.72, -2.05 -68.72, -6.34 -68.72 M-6.34 -68.72 C-4.23 -73.25, -2.11 -77.78, 0 -82.31 M-6.34 -68.72 C-4.21 -73.29, -2.07 -77.87, 0 -82.31 M0 -82.31 C0 -82.31, 0 -82.31, 0 -82.31 M0 -82.31 C0 -82.31, 0 -82.31, 0 -82.31" stroke="#1e1e1e" stroke-width="4" fill="none"></path></g></g><mask></mask><g stroke-linecap="round"><g transform="translate(70.45463419017824 59.94639097939398) rotate(0 0 41.15483903805796)"><path d="M0 0 C0 13.72, 0 68.59, 0 82.31 M0 0 C0 13.72, 0 68.59, 0 82.31" stroke="#1e1e1e" stroke-width="4" fill="none"></path></g><g transform="translate(70.45463419017824 59.94639097939398) rotate(0 0 41.15483903805796)"><path d="M0 82.31 L-6.34 68.72 L6.34 68.72 L0 82.31" stroke="none" stroke-width="0" fill="#1e1e1e" fill-rule="evenodd"></path><path d="M0 82.31 C-1.84 78.35, -3.69 74.4, -6.34 68.72 M0 82.31 C-1.71 78.65, -3.41 75, -6.34 68.72 M-6.34 68.72 C-3.43 68.72, -0.52 68.72, 6.34 68.72 M-6.34 68.72 C-1.33 68.72, 3.68 68.72, 6.34 68.72 M6.34 68.72 C3.84 74.08, 1.34 79.44, 0 82.31 M6.34 68.72 C4.4 72.86, 2.47 77.01, 0 82.31 M0 82.31 C0 82.31, 0 82.31, 0 82.31 M0 82.31 C0 82.31, 0 82.31, 0 82.31" stroke="#1e1e1e" stroke-width="4" fill="none"></path></g></g><mask></mask><g transform="translate(10 10) rotate(0 30.751954392655108 12.614688947301602)"><text x="0" y="0" font-family="Cascadia, Segoe UI Emoji" font-size="21.02448157883602px" fill="#1e1e1e" text-anchor="start" style="white-space: pre;" direction="ltr" dominant-baseline="text-before-edge">J &lt; 0</text></g><g stroke-linecap="round"><g transform="translate(181.49154725952923 142.5988218996572) rotate(0 0 -41.15483903805793)"><path d="M0 0 C0 -13.72, 0 -68.59, 0 -82.31 M0 0 C0 -13.72, 0 -68.59, 0 -82.31" stroke="#1e1e1e" stroke-width="4" fill="none"></path></g><g transform="translate(181.49154725952923 142.5988218996572) rotate(0 0 -41.15483903805793)"><path d="M0 -82.31 L6.34 -68.72 L-6.34 -68.72 L0 -82.31" stroke="none" stroke-width="0" fill="#1e1e1e" fill-rule="evenodd"></path><path d="M0 -82.31 C1.43 -79.23, 2.87 -76.16, 6.34 -68.72 M0 -82.31 C1.59 -78.91, 3.17 -75.5, 6.34 -68.72 M6.34 -68.72 C2.65 -68.72, -1.04 -68.72, -6.34 -68.72 M6.34 -68.72 C1.93 -68.72, -2.47 -68.72, -6.34 -68.72 M-6.34 -68.72 C-4.57 -72.5, -2.81 -76.28, 0 -82.31 M-6.34 -68.72 C-4.43 -72.81, -2.52 -76.91, 0 -82.31 M0 -82.31 C0 -82.31, 0 -82.31, 0 -82.31 M0 -82.31 C0 -82.31, 0 -82.31, 0 -82.31" stroke="#1e1e1e" stroke-width="4" fill="none"></path></g></g><mask></mask><g stroke-linecap="round"><g transform="translate(239.65966099791416 142.2560690555099) rotate(0 0 -41.15483903805796)"><path d="M0 0 C0 -13.72, 0 -68.59, 0 -82.31 M0 0 C0 -13.72, 0 -68.59, 0 -82.31" stroke="#1e1e1e" stroke-width="4" fill="none"></path></g><g transform="translate(239.65966099791416 142.2560690555099) rotate(0 0 -41.15483903805796)"><path d="M0 -82.31 L6.34 -68.72 L-6.34 -68.72 L0 -82.31" stroke="none" stroke-width="0" fill="#1e1e1e" fill-rule="evenodd"></path><path d="M0 -82.31 C1.7 -78.67, 3.39 -75.04, 6.34 -68.72 M0 -82.31 C1.58 -78.92, 3.16 -75.54, 6.34 -68.72 M6.34 -68.72 C2.02 -68.72, -2.3 -68.72, -6.34 -68.72 M6.34 -68.72 C1.67 -68.72, -2.99 -68.72, -6.34 -68.72 M-6.34 -68.72 C-4.82 -71.97, -3.31 -75.22, 0 -82.31 M-6.34 -68.72 C-4.3 -73.09, -2.26 -77.46, 0 -82.31 M0 -82.31 C0 -82.31, 0 -82.31, 0 -82.31 M0 -82.31 C0 -82.31, 0 -82.31, 0 -82.31" stroke="#1e1e1e" stroke-width="4" fill="none"></path></g></g><mask></mask><g transform="translate(179.20502680773592 10) rotate(0 30.751954392655108 12.614688947301602)"><text x="0" y="0" font-family="Cascadia, Segoe UI Emoji" font-size="21.02448157883602px" fill="#1e1e1e" text-anchor="start" style="white-space: pre;" direction="ltr" dominant-baseline="text-before-edge">J &gt; 0</text></g></svg>