<svg version="1.1" xmlns="http://www.w3.org/2000/svg" viewBox="0 0 607.498322251183 391.9393740656614" width="1214.996644502366" height="783.8787481313228">
  <!-- svg-source:excalidraw -->
  
  <defs>
    <style class="style-fonts">
      @font-face {
        font-family: "Virgil";
        src: url("https://excalidraw.com/Virgil.woff2");
      }
      @font-face {
        font-family: "Cascadia";
        src: url("https://excalidraw.com/Cascadia.woff2");
      }
      @font-face {
        font-family: "Assistant";
        src: url("https://excalidraw.com/Assistant-Regular.woff2");
      }
    </style>
    
  </defs>
  <g stroke-linecap="round"><g transform="translate(10 198.48675285451912) rotate(0 293.21730714960245 0)"><path d="M0 0 C97.74 0, 488.7 0, 586.43 0 M0 0 C97.74 0, 488.7 0, 586.43 0" stroke="#1e1e1e" stroke-width="2" fill="none"></path></g><g transform="translate(10 198.48675285451912) rotate(0 293.21730714960245 0)"><path d="M586.43 0 L572.84 6.34 L572.84 -6.34 L586.43 0" stroke="none" stroke-width="0" fill="#1e1e1e" fill-rule="evenodd"></path><path d="M586.43 0 C583.35 1.44, 580.26 2.88, 572.84 6.34 M586.43 0 C582.28 1.94, 578.12 3.88, 572.84 6.34 M572.84 6.34 C572.84 3.78, 572.84 1.22, 572.84 -6.34 M572.84 6.34 C572.84 2.37, 572.84 -1.6, 572.84 -6.34 M572.84 -6.34 C576.03 -4.85, 579.21 -3.37, 586.43 0 M572.84 -6.34 C576.52 -4.62, 580.2 -2.91, 586.43 0 M586.43 0 C586.43 0, 586.43 0, 586.43 0 M586.43 0 C586.43 0, 586.43 0, 586.43 0" stroke="#1e1e1e" stroke-width="2" fill="none"></path></g></g><mask></mask><g stroke-linecap="round"><g transform="translate(182 381.9393740656614) rotate(0 0 -183.4526212111423)"><path d="M0 0 C0 -61.15, 0 -305.75, 0 -366.91 M0 0 C0 -61.15, 0 -305.75, 0 -366.91" stroke="#1e1e1e" stroke-width="2" fill="none"></path></g><g transform="translate(182 381.9393740656614) rotate(0 0 -183.4526212111423)"><path d="M0 -366.91 L6.34 -353.31 L-6.34 -353.31 L0 -366.91" stroke="none" stroke-width="0" fill="#1e1e1e" fill-rule="evenodd"></path><path d="M0 -366.91 C2.19 -362.2, 4.39 -357.49, 6.34 -353.31 M0 -366.91 C2.04 -362.53, 4.08 -358.15, 6.34 -353.31 M6.34 -353.31 C2.55 -353.31, -1.23 -353.31, -6.34 -353.31 M6.34 -353.31 C3.39 -353.31, 0.44 -353.31, -6.34 -353.31 M-6.34 -353.31 C-4.64 -356.95, -2.94 -360.59, 0 -366.91 M-6.34 -353.31 C-4.34 -357.6, -2.34 -361.89, 0 -366.91 M0 -366.91 C0 -366.91, 0 -366.91, 0 -366.91 M0 -366.91 C0 -366.91, 0 -366.91, 0 -366.91" stroke="#1e1e1e" stroke-width="2" fill="none"></path></g></g><mask></mask><g stroke-linecap="round"><g transform="translate(182 198.48675285451912) rotate(0 132 0)"><path d="M0 0 C44 0, 220 0, 264 0 M0 0 C44 0, 220 0, 264 0" stroke="#1971c2" stroke-width="4" fill="none"></path></g></g><mask></mask><g stroke-linecap="round" transform="translate(442 190.32493494915872) rotate(0 8.161817905360408 8.161817905360436)"><path d="M16.32 8.16 C16.32 8.63, 16.28 9.11, 16.2 9.58 C16.12 10.04, 15.99 10.51, 15.83 10.95 C15.67 11.4, 15.47 11.83, 15.23 12.24 C14.99 12.65, 14.72 13.05, 14.41 13.41 C14.11 13.77, 13.77 14.11, 13.41 14.41 C13.05 14.72, 12.65 14.99, 12.24 15.23 C11.83 15.47, 11.4 15.67, 10.95 15.83 C10.51 15.99, 10.04 16.12, 9.58 16.2 C9.11 16.28, 8.63 16.32, 8.16 16.32 C7.69 16.32, 7.21 16.28, 6.74 16.2 C6.28 16.12, 5.81 15.99, 5.37 15.83 C4.93 15.67, 4.49 15.47, 4.08 15.23 C3.67 14.99, 3.28 14.72, 2.92 14.41 C2.55 14.11, 2.21 13.77, 1.91 13.41 C1.61 13.05, 1.33 12.65, 1.09 12.24 C0.86 11.83, 0.65 11.4, 0.49 10.95 C0.33 10.51, 0.21 10.04, 0.12 9.58 C0.04 9.11, 0 8.63, 0 8.16 C0 7.69, 0.04 7.21, 0.12 6.74 C0.21 6.28, 0.33 5.81, 0.49 5.37 C0.65 4.93, 0.86 4.49, 1.09 4.08 C1.33 3.67, 1.61 3.28, 1.91 2.92 C2.21 2.55, 2.55 2.21, 2.92 1.91 C3.28 1.61, 3.67 1.33, 4.08 1.09 C4.49 0.86, 4.93 0.65, 5.37 0.49 C5.81 0.33, 6.28 0.21, 6.74 0.12 C7.21 0.04, 7.69 0, 8.16 0 C8.63 0, 9.11 0.04, 9.58 0.12 C10.04 0.21, 10.51 0.33, 10.95 0.49 C11.4 0.65, 11.83 0.86, 12.24 1.09 C12.65 1.33, 13.05 1.61, 13.41 1.91 C13.77 2.21, 14.11 2.55, 14.41 2.92 C14.72 3.28, 14.99 3.67, 15.23 4.08 C15.47 4.49, 15.67 4.93, 15.83 5.37 C15.99 5.81, 16.12 6.28, 16.2 6.74 C16.28 7.21, 16.3 7.93, 16.32 8.16 C16.34 8.4, 16.34 7.93, 16.32 8.16" stroke="none" stroke-width="0" fill="#1971c2"></path><path d="M16.32 8.16 C16.32 8.63, 16.28 9.11, 16.2 9.58 C16.12 10.04, 15.99 10.51, 15.83 10.95 C15.67 11.4, 15.47 11.83, 15.23 12.24 C14.99 12.65, 14.72 13.05, 14.41 13.41 C14.11 13.77, 13.77 14.11, 13.41 14.41 C13.05 14.72, 12.65 14.99, 12.24 15.23 C11.83 15.47, 11.4 15.67, 10.95 15.83 C10.51 15.99, 10.04 16.12, 9.58 16.2 C9.11 16.28, 8.63 16.32, 8.16 16.32 C7.69 16.32, 7.21 16.28, 6.74 16.2 C6.28 16.12, 5.81 15.99, 5.37 15.83 C4.93 15.67, 4.49 15.47, 4.08 15.23 C3.67 14.99, 3.28 14.72, 2.92 14.41 C2.55 14.11, 2.21 13.77, 1.91 13.41 C1.61 13.05, 1.33 12.65, 1.09 12.24 C0.86 11.83, 0.65 11.4, 0.49 10.95 C0.33 10.51, 0.21 10.04, 0.12 9.58 C0.04 9.11, 0 8.63, 0 8.16 C0 7.69, 0.04 7.21, 0.12 6.74 C0.21 6.28, 0.33 5.81, 0.49 5.37 C0.65 4.93, 0.86 4.49, 1.09 4.08 C1.33 3.67, 1.61 3.28, 1.91 2.92 C2.21 2.55, 2.55 2.21, 2.92 1.91 C3.28 1.61, 3.67 1.33, 4.08 1.09 C4.49 0.86, 4.93 0.65, 5.37 0.49 C5.81 0.33, 6.28 0.21, 6.74 0.12 C7.21 0.04, 7.69 0, 8.16 0 C8.63 0, 9.11 0.04, 9.58 0.12 C10.04 0.21, 10.51 0.33, 10.95 0.49 C11.4 0.65, 11.83 0.86, 12.24 1.09 C12.65 1.33, 13.05 1.61, 13.41 1.91 C13.77 2.21, 14.11 2.55, 14.41 2.92 C14.72 3.28, 14.99 3.67, 15.23 4.08 C15.47 4.49, 15.67 4.93, 15.83 5.37 C15.99 5.81, 16.12 6.28, 16.2 6.74 C16.28 7.21, 16.3 7.93, 16.32 8.16 C16.34 8.4, 16.34 7.93, 16.32 8.16" stroke="#1971c2" stroke-width="4" fill="none"></path></g><g transform="translate(132.60028069498435 10) rotate(0 13 20.700000000000003)"><text x="0" y="0" font-family="Helvetica, Segoe UI Emoji" font-size="36px" fill="#1e1e1e" text-anchor="start" style="white-space: pre;" direction="ltr" dominant-baseline="text-before-edge">H</text></g><g transform="translate(575.498322251183 222.9480958577579) rotate(0 11 20.69999999999999)"><text x="0" y="0" font-family="Helvetica, Segoe UI Emoji" font-size="36px" fill="#1e1e1e" text-anchor="start" style="white-space: pre;" direction="ltr" dominant-baseline="text-before-edge">T</text></g><g transform="translate(439.2070440432799 224.9331381286848) rotate(0 11 20.69999999999999)"><text x="0" y="0" font-family="Helvetica, Segoe UI Emoji" font-size="36px" fill="#1971c2" text-anchor="start" style="white-space: pre;" direction="ltr" dominant-baseline="text-before-edge">T</text></g><g transform="translate(456.16217085606013 237.03128828800175) rotate(0 9 20.69999999999999)"><text x="0" y="0" font-family="Helvetica, Segoe UI Emoji" font-size="36px" fill="#1971c2" text-anchor="start" style="white-space: pre;" direction="ltr" dominant-baseline="text-before-edge">c</text></g></svg>