<svg version="1.1" xmlns="http://www.w3.org/2000/svg" viewBox="0 0 488.0815052154379 288.27918927145447" width="488.0815052154379" height="288.27918927145447">
  <!-- svg-source:excalidraw -->
  
  <defs>
    <style class="style-fonts">
      @font-face {
        font-family: "Virgil";
        src: url("https://excalidraw.com/Virgil.woff2");
      }
      @font-face {
        font-family: "Cascadia";
        src: url("https://excalidraw.com/Cascadia.woff2");
      }
      @font-face {
        font-family: "Assistant";
        src: url("https://excalidraw.com/Assistant-Regular.woff2");
      }
    </style>
    
  </defs>
  <g stroke-linecap="round"><g transform="translate(47.36700775822135 253.60327840664908) rotate(0 0 -114.52386575450345)"><path d="M0 0 C0 -38.17, 0 -190.87, 0 -229.05 M0 0 C0 -38.17, 0 -190.87, 0 -229.05" stroke="#1e1e1e" stroke-width="2" fill="none"></path></g><g transform="translate(47.36700775822135 253.60327840664908) rotate(0 0 -114.52386575450345)"><path d="M0 -229.05 L6.34 -215.45 L-6.34 -215.45 L0 -229.05" stroke="none" stroke-width="0" fill="#1e1e1e" fill-rule="evenodd"></path><path d="M0 -229.05 C2.19 -224.34, 4.39 -219.63, 6.34 -215.45 M0 -229.05 C2.04 -224.67, 4.08 -220.29, 6.34 -215.45 M6.34 -215.45 C2.55 -215.45, -1.23 -215.45, -6.34 -215.45 M6.34 -215.45 C3.39 -215.45, 0.44 -215.45, -6.34 -215.45 M-6.34 -215.45 C-4.64 -219.09, -2.94 -222.73, 0 -229.05 M-6.34 -215.45 C-4.34 -219.74, -2.34 -224.03, 0 -229.05 M0 -229.05 C0 -229.05, 0 -229.05, 0 -229.05 M0 -229.05 C0 -229.05, 0 -229.05, 0 -229.05" stroke="#1e1e1e" stroke-width="2" fill="none"></path></g></g><mask></mask><g transform="translate(10 23.791694511513043) rotate(0 7.052083492279053 14.466029601111785)"><text x="0" y="0" font-family="Cascadia, Segoe UI Emoji" font-size="24.1100493351863px" fill="#1e1e1e" text-anchor="start" style="white-space: pre;" direction="ltr" dominant-baseline="text-before-edge">h</text></g><g transform="translate(446.36379720602406 155.70333746669453) rotate(0 7.6875 15.803649050903317)"><text x="0" y="0" font-family="Cascadia, Segoe UI Emoji" font-size="26.33941508483888px" fill="#1e1e1e" text-anchor="start" style="white-space: pre;" direction="ltr" dominant-baseline="text-before-edge">T</text></g><g transform="translate(248.3047628617927 10) rotate(0 7.78125 15.85582780441402)"><text x="0" y="0" font-family="Cascadia, Segoe UI Emoji" font-size="26.426379674023377px" fill="#1e1e1e" text-anchor="start" style="white-space: pre;" direction="ltr" dominant-baseline="text-before-edge">T</text></g><g transform="translate(261.51735468185495 22.201943136062482) rotate(0 5.447916507720947 11.129645318209597)"><text x="0" y="0" font-family="Cascadia, Segoe UI Emoji" font-size="18.549408863682658px" fill="#1e1e1e" text-anchor="start" style="white-space: pre;" direction="ltr" dominant-baseline="text-before-edge">c</text></g><g stroke-linecap="round"><g transform="translate(128.34073968476036 172.12070859049223) rotate(0 0 16.962536829035145)"><path d="M0 0 C0 5.65, 0 28.27, 0 33.93 M0 0 C0 5.65, 0 28.27, 0 33.93" stroke="#1e1e1e" stroke-width="2" fill="none"></path></g><g transform="translate(128.34073968476036 172.12070859049223) rotate(0 0 16.962536829035145)"><path d="M0 33.93 L-6.34 20.33 L6.34 20.33 L0 33.93" stroke="none" stroke-width="0" fill="#1e1e1e" fill-rule="evenodd"></path><path d="M0 33.93 C-2.38 28.81, -4.77 23.7, -6.34 20.33 M0 33.93 C-2.04 29.56, -4.07 25.19, -6.34 20.33 M-6.34 20.33 C-2.17 20.33, 2 20.33, 6.34 20.33 M-6.34 20.33 C-3.28 20.33, -0.23 20.33, 6.34 20.33 M6.34 20.33 C4.51 24.24, 2.69 28.16, 0 33.93 M6.34 20.33 C4.41 24.47, 2.47 28.62, 0 33.93 M0 33.93 C0 33.93, 0 33.93, 0 33.93 M0 33.93 C0 33.93, 0 33.93, 0 33.93" stroke="#1e1e1e" stroke-width="2" fill="none"></path></g></g><mask></mask><g stroke-linecap="round"><g transform="translate(152.31553328437633 172.12070859049223) rotate(0 0 16.962536829035145)"><path d="M0 0 C0 5.65, 0 28.27, 0 33.93 M0 0 C0 5.65, 0 28.27, 0 33.93" stroke="#1e1e1e" stroke-width="2" fill="none"></path></g><g transform="translate(152.31553328437633 172.12070859049223) rotate(0 0 16.962536829035145)"><path d="M0 33.93 L-6.34 20.33 L6.34 20.33 L0 33.93" stroke="none" stroke-width="0" fill="#1e1e1e" fill-rule="evenodd"></path><path d="M0 33.93 C-2.24 29.13, -4.48 24.33, -6.34 20.33 M0 33.93 C-1.57 30.56, -3.14 27.2, -6.34 20.33 M-6.34 20.33 C-2.6 20.33, 1.15 20.33, 6.34 20.33 M-6.34 20.33 C-3.4 20.33, -0.45 20.33, 6.34 20.33 M6.34 20.33 C4.31 24.68, 2.28 29.04, 0 33.93 M6.34 20.33 C4.38 24.54, 2.42 28.74, 0 33.93 M0 33.93 C0 33.93, 0 33.93, 0 33.93 M0 33.93 C0 33.93, 0 33.93, 0 33.93" stroke="#1e1e1e" stroke-width="2" fill="none"></path></g></g><mask></mask><g stroke-linecap="round"><g transform="translate(176.2903268839924 172.12070859049228) rotate(0 0 16.962536829035145)"><path d="M0 0 C0 5.65, 0 28.27, 0 33.93 M0 0 C0 5.65, 0 28.27, 0 33.93" stroke="#1e1e1e" stroke-width="2" fill="none"></path></g><g transform="translate(176.2903268839924 172.12070859049228) rotate(0 0 16.962536829035145)"><path d="M0 33.93 L-6.34 20.33 L6.34 20.33 L0 33.93" stroke="none" stroke-width="0" fill="#1e1e1e" fill-rule="evenodd"></path><path d="M0 33.93 C-2.53 28.5, -5.06 23.07, -6.34 20.33 M0 33.93 C-1.35 31.03, -2.7 28.14, -6.34 20.33 M-6.34 20.33 C-3.33 20.33, -0.32 20.33, 6.34 20.33 M-6.34 20.33 C-3.78 20.33, -1.23 20.33, 6.34 20.33 M6.34 20.33 C4.12 25.08, 1.91 29.83, 0 33.93 M6.34 20.33 C4.95 23.31, 3.56 26.28, 0 33.93 M0 33.93 C0 33.93, 0 33.93, 0 33.93 M0 33.93 C0 33.93, 0 33.93, 0 33.93" stroke="#1e1e1e" stroke-width="2" fill="none"></path></g></g><mask></mask><g stroke-linecap="round"><g transform="translate(317.65864528651525 107.15343791885923) rotate(0 0 30.39133699943841)"><path d="M0 0 C0 10.13, 0 50.65, 0 60.78 M0 0 C0 10.13, 0 50.65, 0 60.78" stroke="#1e1e1e" stroke-width="4" fill="none"></path></g><g transform="translate(317.65864528651525 107.15343791885923) rotate(0 0 30.39133699943841)"><path d="M0 60.78 L-6.34 47.19 L6.34 47.19 L0 60.78" stroke="none" stroke-width="0" fill="#1e1e1e" fill-rule="evenodd"></path><path d="M0 60.78 C-1.98 56.54, -3.95 52.3, -6.34 47.19 M0 60.78 C-2.22 56.03, -4.44 51.27, -6.34 47.19 M-6.34 47.19 C-2.75 47.19, 0.83 47.19, 6.34 47.19 M-6.34 47.19 C-2.93 47.19, 0.49 47.19, 6.34 47.19 M6.34 47.19 C4.9 50.28, 3.46 53.37, 0 60.78 M6.34 47.19 C4.76 50.57, 3.18 53.95, 0 60.78 M0 60.78 C0 60.78, 0 60.78, 0 60.78 M0 60.78 C0 60.78, 0 60.78, 0 60.78" stroke="#1e1e1e" stroke-width="4" fill="none"></path></g></g><mask></mask><g stroke-linecap="round"><g transform="translate(360.61366074922023 167.93611191773604) rotate(0 0 -30.391336999438366)"><path d="M0 0 C0 -10.13, 0 -50.65, 0 -60.78 M0 0 C0 -10.13, 0 -50.65, 0 -60.78" stroke="#1e1e1e" stroke-width="4" fill="none"></path></g><g transform="translate(360.61366074922023 167.93611191773604) rotate(0 0 -30.391336999438366)"><path d="M0 -60.78 L6.34 -47.19 L-6.34 -47.19 L0 -60.78" stroke="none" stroke-width="0" fill="#1e1e1e" fill-rule="evenodd"></path><path d="M0 -60.78 C1.81 -56.89, 3.63 -53, 6.34 -47.19 M0 -60.78 C1.92 -56.67, 3.84 -52.55, 6.34 -47.19 M6.34 -47.19 C2.35 -47.19, -1.63 -47.19, -6.34 -47.19 M6.34 -47.19 C3.55 -47.19, 0.76 -47.19, -6.34 -47.19 M-6.34 -47.19 C-4.31 -51.55, -2.28 -55.9, 0 -60.78 M-6.34 -47.19 C-4.93 -50.22, -3.51 -53.25, 0 -60.78 M0 -60.78 C0 -60.78, 0 -60.78, 0 -60.78 M0 -60.78 C0 -60.78, 0 -60.78, 0 -60.78" stroke="#1e1e1e" stroke-width="4" fill="none"></path></g></g><mask></mask><g stroke-linecap="round"><g transform="translate(403.56867621192566 107.15343791885931) rotate(0 0 30.391336999438394)"><path d="M0 0 C0 10.13, 0 50.65, 0 60.78 M0 0 C0 10.13, 0 50.65, 0 60.78" stroke="#1e1e1e" stroke-width="4" fill="none"></path></g><g transform="translate(403.56867621192566 107.15343791885931) rotate(0 0 30.391336999438394)"><path d="M0 60.78 L-6.34 47.19 L6.34 47.19 L0 60.78" stroke="none" stroke-width="0" fill="#1e1e1e" fill-rule="evenodd"></path><path d="M0 60.78 C-1.82 56.88, -3.64 52.98, -6.34 47.19 M0 60.78 C-1.6 57.34, -3.21 53.9, -6.34 47.19 M-6.34 47.19 C-3.37 47.19, -0.4 47.19, 6.34 47.19 M-6.34 47.19 C-2.63 47.19, 1.09 47.19, 6.34 47.19 M6.34 47.19 C3.83 52.56, 1.33 57.94, 0 60.78 M6.34 47.19 C4.63 50.85, 2.92 54.51, 0 60.78 M0 60.78 C0 60.78, 0 60.78, 0 60.78 M0 60.78 C0 60.78, 0 60.78, 0 60.78" stroke="#1e1e1e" stroke-width="4" fill="none"></path></g></g><mask></mask><g stroke-linecap="round"><g transform="translate(128.34073968476036 105.80804774689574) rotate(0 0 -16.96253682903516)"><path d="M0 0 C0 -5.65, 0 -28.27, 0 -33.93 M0 0 C0 -5.65, 0 -28.27, 0 -33.93" stroke="#1e1e1e" stroke-width="2" fill="none"></path></g><g transform="translate(128.34073968476036 105.80804774689574) rotate(0 0 -16.96253682903516)"><path d="M0 -33.93 L6.34 -20.33 L-6.34 -20.33 L0 -33.93" stroke="none" stroke-width="0" fill="#1e1e1e" fill-rule="evenodd"></path><path d="M0 -33.93 C1.44 -30.84, 2.87 -27.76, 6.34 -20.33 M0 -33.93 C1.78 -30.11, 3.55 -26.3, 6.34 -20.33 M6.34 -20.33 C1.29 -20.33, -3.76 -20.33, -6.34 -20.33 M6.34 -20.33 C2.66 -20.33, -1.02 -20.33, -6.34 -20.33 M-6.34 -20.33 C-4.84 -23.55, -3.33 -26.78, 0 -33.93 M-6.34 -20.33 C-4.33 -24.65, -2.31 -28.96, 0 -33.93 M0 -33.93 C0 -33.93, 0 -33.93, 0 -33.93 M0 -33.93 C0 -33.93, 0 -33.93, 0 -33.93" stroke="#1e1e1e" stroke-width="2" fill="none"></path></g></g><mask></mask><g stroke-linecap="round"><g transform="translate(152.31553328437633 105.80804774689574) rotate(0 0 -17.143300846778857)"><path d="M0 0 C0 -5.71, 0 -28.57, 0 -34.29 M0 0 C0 -5.71, 0 -28.57, 0 -34.29" stroke="#1e1e1e" stroke-width="2" fill="none"></path></g><g transform="translate(152.31553328437633 105.80804774689574) rotate(0 0 -17.143300846778857)"><path d="M0 -34.29 L6.34 -20.69 L-6.34 -20.69 L0 -34.29" stroke="none" stroke-width="0" fill="#1e1e1e" fill-rule="evenodd"></path><path d="M0 -34.29 C1.64 -30.78, 3.27 -27.27, 6.34 -20.69 M0 -34.29 C1.92 -30.16, 3.85 -26.03, 6.34 -20.69 M6.34 -20.69 C2.21 -20.69, -1.92 -20.69, -6.34 -20.69 M6.34 -20.69 C1.44 -20.69, -3.45 -20.69, -6.34 -20.69 M-6.34 -20.69 C-4.06 -25.58, -1.78 -30.47, 0 -34.29 M-6.34 -20.69 C-4.61 -24.4, -2.88 -28.12, 0 -34.29 M0 -34.29 C0 -34.29, 0 -34.29, 0 -34.29 M0 -34.29 C0 -34.29, 0 -34.29, 0 -34.29" stroke="#1e1e1e" stroke-width="2" fill="none"></path></g></g><mask></mask><g stroke-linecap="round"><g transform="translate(176.2903268839924 105.80804774689568) rotate(0 0 -16.96253682903516)"><path d="M0 0 C0 -5.65, 0 -28.27, 0 -33.93 M0 0 C0 -5.65, 0 -28.27, 0 -33.93" stroke="#1e1e1e" stroke-width="2" fill="none"></path></g><g transform="translate(176.2903268839924 105.80804774689568) rotate(0 0 -16.96253682903516)"><path d="M0 -33.93 L6.34 -20.33 L-6.34 -20.33 L0 -33.93" stroke="none" stroke-width="0" fill="#1e1e1e" fill-rule="evenodd"></path><path d="M0 -33.93 C1.87 -29.91, 3.74 -25.9, 6.34 -20.33 M0 -33.93 C1.85 -29.96, 3.7 -26, 6.34 -20.33 M6.34 -20.33 C1.86 -20.33, -2.62 -20.33, -6.34 -20.33 M6.34 -20.33 C1.38 -20.33, -3.58 -20.33, -6.34 -20.33 M-6.34 -20.33 C-4.09 -25.16, -1.83 -29.99, 0 -33.93 M-6.34 -20.33 C-4.78 -23.68, -3.22 -27.02, 0 -33.93 M0 -33.93 C0 -33.93, 0 -33.93, 0 -33.93 M0 -33.93 C0 -33.93, 0 -33.93, 0 -33.93" stroke="#1e1e1e" stroke-width="2" fill="none"></path></g></g><mask></mask><g stroke-linecap="round"><g transform="translate(257.8778195776978 51.64709897330479) rotate(0 0 101.762106115465)"><path d="M0 0 C0 33.92, 0 169.6, 0 203.52" stroke="#343a40" stroke-width="1.5" fill="none" stroke-dasharray="8 9"></path></g></g><mask></mask><g stroke-linecap="round"><g transform="translate(37.52724491878496 139.17572260397927) rotate(0 220.27713014832648 0)"><path d="M0 0 C73.43 0, 367.13 0, 440.55 0 M0 0 C73.43 0, 367.13 0, 440.55 0" stroke="#1e1e1e" stroke-width="2" fill="none"></path></g><g transform="translate(37.52724491878496 139.17572260397927) rotate(0 220.27713014832648 0)"><path d="M440.55 0 L426.96 6.34 L426.96 -6.34 L440.55 0" stroke="none" stroke-width="0" fill="#1e1e1e" fill-rule="evenodd"></path><path d="M440.55 0 C437.46 1.44, 434.38 2.88, 426.96 6.34 M440.55 0 C436.4 1.94, 432.24 3.88, 426.96 6.34 M426.96 6.34 C426.96 3.78, 426.96 1.22, 426.96 -6.34 M426.96 6.34 C426.96 2.37, 426.96 -1.6, 426.96 -6.34 M426.96 -6.34 C430.15 -4.85, 433.33 -3.37, 440.55 0 M426.96 -6.34 C430.64 -4.62, 434.32 -2.91, 440.55 0 M440.55 0 C440.55 0, 440.55 0, 440.55 0 M440.55 0 C440.55 0, 440.55 0, 440.55 0" stroke="#1e1e1e" stroke-width="2" fill="none"></path></g></g><mask></mask><g stroke-linecap="round"><g transform="translate(47.480027746023325 137.90020798678407) rotate(0 104.835505538353 0)"><path d="M0 0 C34.95 0, 174.73 0, 209.67 0 M0 0 C34.95 0, 174.73 0, 209.67 0" stroke="#1e1e1e" stroke-width="4" fill="none"></path></g></g><mask></mask><g stroke-linecap="round"><g transform="translate(47.480027746023325 140.02854835060393) rotate(0 104.835505538353 0)"><path d="M0 0 C34.95 0, 174.73 0, 209.67 0 M0 0 C34.95 0, 174.73 0, 209.67 0" stroke="#1e1e1e" stroke-width="4" fill="none"></path></g></g><mask></mask><g stroke-linecap="round"><g transform="translate(257.98471727203935 134.73926924686305) rotate(0 -0.07091488116543587 4.7306113763166735)"><path d="M0 0 C-0.02 1.58, -0.12 7.88, -0.14 9.46 M0 0 C-0.02 1.58, -0.12 7.88, -0.14 9.46" stroke="#1e1e1e" stroke-width="4" fill="none"></path></g></g><mask></mask><g transform="translate(28.781239135440046 145.04480773301364) rotate(0 5.21875 10.658529514595557)"><text x="0" y="0" font-family="Cascadia, Segoe UI Emoji" font-size="17.764215857659256px" fill="#1e1e1e" text-anchor="start" style="white-space: pre;" direction="ltr" dominant-baseline="text-before-edge">0</text></g><g transform="translate(90.44034992861941 239.87918927145446) rotate(0 60.66666793823242 19.19999999999999)"><text x="60.66666793823242" y="0" font-family="Cascadia, Segoe UI Emoji" font-size="16px" fill="#1e1e1e" text-anchor="middle" style="white-space: pre;" direction="ltr" dominant-baseline="text-before-edge">ferromagnetic</text><text x="60.66666793823242" y="19.2" font-family="Cascadia, Segoe UI Emoji" font-size="16px" fill="#1e1e1e" text-anchor="middle" style="white-space: pre;" direction="ltr" dominant-baseline="text-before-edge">phase</text></g><g transform="translate(305.3254463228237 239.87918927145446) rotate(0 56 19.19999999999999)"><text x="56" y="0" font-family="Cascadia, Segoe UI Emoji" font-size="16px" fill="#1e1e1e" text-anchor="middle" style="white-space: pre;" direction="ltr" dominant-baseline="text-before-edge">paramagnetic</text><text x="56" y="19.2" font-family="Cascadia, Segoe UI Emoji" font-size="16px" fill="#1e1e1e" text-anchor="middle" style="white-space: pre;" direction="ltr" dominant-baseline="text-before-edge">phase</text></g></svg>