<svg version="1.1" xmlns="http://www.w3.org/2000/svg" viewBox="0 0 289.2279521646054 96.1931740521174" width="289.2279521646054" height="96.1931740521174">
  <!-- svg-source:excalidraw -->
  
  <defs>
    <style class="style-fonts">
      @font-face {
        font-family: "Virgil";
        src: url("https://excalidraw.com/Virgil.woff2");
      }
      @font-face {
        font-family: "Cascadia";
        src: url("https://excalidraw.com/Cascadia.woff2");
      }
      @font-face {
        font-family: "Assistant";
        src: url("https://excalidraw.com/Assistant-Regular.woff2");
      }
    </style>
    
  </defs>
  <g stroke-linecap="round"><g transform="translate(10 86.19317405211734) rotate(0 0 -38.09658702605867)"><path d="M0 0 C0 -12.7, 0 -63.49, 0 -76.19 M0 0 C0 -12.7, 0 -63.49, 0 -76.19" stroke="#1e1e1e" stroke-width="4" fill="none"></path></g><g transform="translate(10 86.19317405211734) rotate(0 0 -38.09658702605867)"><path d="M0 -76.19 L6.34 -62.6 L-6.34 -62.6 L0 -76.19" stroke="none" stroke-width="0" fill="#1e1e1e" fill-rule="evenodd"></path><path d="M0 -76.19 C1.69 -72.57, 3.38 -68.95, 6.34 -62.6 M0 -76.19 C2.21 -71.45, 4.43 -66.7, 6.34 -62.6 M6.34 -62.6 C2.09 -62.6, -2.16 -62.6, -6.34 -62.6 M6.34 -62.6 C2.05 -62.6, -2.24 -62.6, -6.34 -62.6 M-6.34 -62.6 C-4.96 -65.57, -3.57 -68.53, 0 -76.19 M-6.34 -62.6 C-4.44 -66.66, -2.55 -70.73, 0 -76.19 M0 -76.19 C0 -76.19, 0 -76.19, 0 -76.19 M0 -76.19 C0 -76.19, 0 -76.19, 0 -76.19" stroke="#1e1e1e" stroke-width="4" fill="none"></path></g></g><mask></mask><g stroke-linecap="round"><g transform="translate(171.53677129876326 86.19317405211734) rotate(0 0 -38.09658702605867)"><path d="M0 0 C0 -12.7, 0 -63.49, 0 -76.19 M0 0 C0 -12.7, 0 -63.49, 0 -76.19" stroke="#1e1e1e" stroke-width="4" fill="none"></path></g><g transform="translate(171.53677129876326 86.19317405211734) rotate(0 0 -38.09658702605867)"><path d="M0 -76.19 L6.34 -62.6 L-6.34 -62.6 L0 -76.19" stroke="none" stroke-width="0" fill="#1e1e1e" fill-rule="evenodd"></path><path d="M0 -76.19 C2.04 -71.83, 4.07 -67.46, 6.34 -62.6 M0 -76.19 C1.85 -72.22, 3.71 -68.24, 6.34 -62.6 M6.34 -62.6 C1.54 -62.6, -3.27 -62.6, -6.34 -62.6 M6.34 -62.6 C3.18 -62.6, 0.02 -62.6, -6.34 -62.6 M-6.34 -62.6 C-4.12 -67.35, -1.91 -72.1, 0 -76.19 M-6.34 -62.6 C-4.51 -66.52, -2.68 -70.44, 0 -76.19 M0 -76.19 C0 -76.19, 0 -76.19, 0 -76.19 M0 -76.19 C0 -76.19, 0 -76.19, 0 -76.19" stroke="#1e1e1e" stroke-width="4" fill="none"></path></g></g><mask></mask><g stroke-linecap="round"><g transform="translate(63.845590432921085 10) rotate(0 0 38.09658702605867)"><path d="M0 0 C0 12.7, 0 63.49, 0 76.19 M0 0 C0 12.7, 0 63.49, 0 76.19" stroke="#1e1e1e" stroke-width="4" fill="none"></path></g><g transform="translate(63.845590432921085 10) rotate(0 0 38.09658702605867)"><path d="M0 76.19 L-6.34 62.6 L6.34 62.6 L0 76.19" stroke="none" stroke-width="0" fill="#1e1e1e" fill-rule="evenodd"></path><path d="M0 76.19 C-2.45 70.93, -4.91 65.67, -6.34 62.6 M0 76.19 C-1.28 73.44, -2.56 70.69, -6.34 62.6 M-6.34 62.6 C-2.85 62.6, 0.63 62.6, 6.34 62.6 M-6.34 62.6 C-3.8 62.6, -1.26 62.6, 6.34 62.6 M6.34 62.6 C4.69 66.14, 3.04 69.68, 0 76.19 M6.34 62.6 C4.46 66.63, 2.58 70.66, 0 76.19 M0 76.19 C0 76.19, 0 76.19, 0 76.19 M0 76.19 C0 76.19, 0 76.19, 0 76.19" stroke="#1e1e1e" stroke-width="4" fill="none"></path></g></g><mask></mask><g stroke-linecap="round"><g transform="translate(225.3823617316844 10.000000000000114) rotate(0 0 38.09658702605864)"><path d="M0 0 C0 12.7, 0 63.49, 0 76.19 M0 0 C0 12.7, 0 63.49, 0 76.19" stroke="#1e1e1e" stroke-width="4" fill="none"></path></g><g transform="translate(225.3823617316844 10.000000000000114) rotate(0 0 38.09658702605864)"><path d="M0 76.19 L-6.34 62.6 L6.34 62.6 L0 76.19" stroke="none" stroke-width="0" fill="#1e1e1e" fill-rule="evenodd"></path><path d="M0 76.19 C-1.33 73.35, -2.65 70.5, -6.34 62.6 M0 76.19 C-1.77 72.4, -3.53 68.61, -6.34 62.6 M-6.34 62.6 C-2.71 62.6, 0.92 62.6, 6.34 62.6 M-6.34 62.6 C-3.46 62.6, -0.57 62.6, 6.34 62.6 M6.34 62.6 C4.56 66.41, 2.79 70.22, 0 76.19 M6.34 62.6 C3.86 67.91, 1.38 73.23, 0 76.19 M0 76.19 C0 76.19, 0 76.19, 0 76.19 M0 76.19 C0 76.19, 0 76.19, 0 76.19" stroke="#1e1e1e" stroke-width="4" fill="none"></path></g></g><mask></mask><g stroke-linecap="round"><g transform="translate(117.69118086584217 10.000000000000114) rotate(0 0 38.09658702605864)"><path d="M0 0 C0 12.7, 0 63.49, 0 76.19 M0 0 C0 12.7, 0 63.49, 0 76.19" stroke="#1e1e1e" stroke-width="4" fill="none"></path></g><g transform="translate(117.69118086584217 10.000000000000114) rotate(0 0 38.09658702605864)"><path d="M0 76.19 L-6.34 62.6 L6.34 62.6 L0 76.19" stroke="none" stroke-width="0" fill="#1e1e1e" fill-rule="evenodd"></path><path d="M0 76.19 C-2.46 70.92, -4.91 65.66, -6.34 62.6 M0 76.19 C-2.07 71.76, -4.14 67.32, -6.34 62.6 M-6.34 62.6 C-1.43 62.6, 3.48 62.6, 6.34 62.6 M-6.34 62.6 C-1.58 62.6, 3.19 62.6, 6.34 62.6 M6.34 62.6 C4.68 66.16, 3.02 69.72, 0 76.19 M6.34 62.6 C5.05 65.35, 3.77 68.11, 0 76.19 M0 76.19 C0 76.19, 0 76.19, 0 76.19 M0 76.19 C0 76.19, 0 76.19, 0 76.19" stroke="#1e1e1e" stroke-width="4" fill="none"></path></g></g><mask></mask><g stroke-linecap="round"><g transform="translate(279.2279521646054 86.19317405211734) rotate(0 0 -38.09658702605867)"><path d="M0 0 C0 -12.7, 0 -63.49, 0 -76.19 M0 0 C0 -12.7, 0 -63.49, 0 -76.19" stroke="#1e1e1e" stroke-width="4" fill="none"></path></g><g transform="translate(279.2279521646054 86.19317405211734) rotate(0 0 -38.09658702605867)"><path d="M0 -76.19 L6.34 -62.6 L-6.34 -62.6 L0 -76.19" stroke="none" stroke-width="0" fill="#1e1e1e" fill-rule="evenodd"></path><path d="M0 -76.19 C2.37 -71.11, 4.74 -66.03, 6.34 -62.6 M0 -76.19 C1.76 -72.43, 3.51 -68.66, 6.34 -62.6 M6.34 -62.6 C2.29 -62.6, -1.76 -62.6, -6.34 -62.6 M6.34 -62.6 C2.14 -62.6, -2.06 -62.6, -6.34 -62.6 M-6.34 -62.6 C-4.31 -66.96, -2.28 -71.31, 0 -76.19 M-6.34 -62.6 C-4.65 -66.22, -2.96 -69.84, 0 -76.19 M0 -76.19 C0 -76.19, 0 -76.19, 0 -76.19 M0 -76.19 C0 -76.19, 0 -76.19, 0 -76.19" stroke="#1e1e1e" stroke-width="4" fill="none"></path></g></g><mask></mask></svg>